<svg width="224" height="205" viewBox="0 0 224 205" fill="none" xmlns="http://www.w3.org/2000/svg">
<path d="M169.875 107.028L111.685 0L53.4027 106.978C29.3326 151.159 61.3126 205 111.625 205C161.913 205 193.895 151.208 169.875 107.028Z" fill="#F5F5F5"/>
<path d="M162.334 111.856L131.683 56.1373L111.705 92.4358L91.8567 128.539C90.0997 131.797 89.1886 135.447 89.1886 139.096C89.1886 145.287 91.7916 151.282 96.2819 155.518C100.512 159.493 105.913 161.579 111.64 161.579C112.16 161.579 112.681 161.579 113.202 161.579C124.525 160.862 133.505 151.739 134.156 140.399C134.416 136.294 133.505 132.188 131.553 128.539L113.462 95.6942L116.651 89.8943L136.434 125.867C138.842 130.363 139.948 135.447 139.622 140.595C138.842 154.736 127.583 166.075 113.527 166.988C105.653 167.509 98.1691 164.837 92.5075 159.493C86.7808 154.15 83.6572 146.851 83.6572 139.031C83.6572 134.404 84.7635 129.972 86.911 125.867L128.429 50.3374L126.607 47.0138L84.1127 124.303C81.7049 128.799 80.4684 133.883 80.4684 138.966C80.4684 147.568 84.0476 155.909 90.36 161.774C96.2168 167.248 103.701 170.246 111.64 170.246C112.356 170.246 113.071 170.246 113.787 170.181C129.471 169.138 141.965 156.496 142.811 140.79C143.137 135.056 141.9 129.386 139.232 124.368L118.473 86.6359L121.661 80.8359L144.113 121.696C147.236 127.561 148.668 134.274 148.343 140.986C147.301 159.493 132.594 174.352 114.178 175.59C103.896 176.242 94.0693 172.788 86.5856 165.75C79.1019 158.711 74.937 149.197 74.937 138.9C74.937 132.905 76.4338 126.975 79.232 121.696L123.484 41.2791L121.661 38.0207L76.4338 120.197C73.3752 125.932 71.7483 132.449 71.7483 138.9C71.7483 149.914 76.3687 160.536 84.373 168.096C91.8568 175.134 101.423 178.913 111.64 178.913C112.551 178.913 113.462 178.913 114.373 178.848C134.416 177.545 150.425 161.383 151.531 141.246C151.922 133.948 150.36 126.714 146.911 120.262L123.484 77.6427L126.672 71.8428L151.857 117.591C155.696 124.889 157.518 133.166 157.063 141.442C155.761 164.316 137.605 182.758 114.763 184.257C102.009 185.104 89.9045 180.738 80.6637 172.071C71.5531 163.534 66.2819 151.413 66.2819 138.9C66.2819 131.471 68.1041 124.107 71.5531 117.591L118.473 32.2859L116.651 28.9623L68.7548 116.027C65.0455 123.065 63.0932 130.885 63.0932 138.835C63.0932 152.26 68.6897 165.163 78.4511 174.352C87.5617 182.889 99.2103 187.516 111.64 187.516C112.746 187.516 113.852 187.516 114.959 187.385C139.362 185.756 158.82 166.075 160.186 141.572C160.707 132.71 158.755 123.847 154.59 116.027L128.429 68.5192L131.618 62.7193L159.471 113.355C164.091 122.022 166.238 131.862 165.653 141.768C164.156 169.073 142.486 190.97 115.284 192.729C100.121 193.707 85.6745 188.558 74.6767 178.197C63.809 167.965 57.5618 153.563 57.5618 138.64C57.5618 129.842 59.7743 121.044 63.8741 113.29L113.462 23.1624L111.64 19.8389L107.345 27.659L106.694 28.8972L104.481 33.0028L94.4598 51.1846L89.9045 59.4609L61.0759 111.856C56.7158 120.132 54.373 129.386 54.373 138.77C54.373 154.541 61.0108 169.855 72.5292 180.673C83.2667 190.774 96.9977 196.183 111.64 196.183C112.941 196.183 114.243 196.183 115.544 196.053C144.373 194.163 167.28 170.963 168.907 142.094C169.492 131.602 167.215 121.175 162.334 111.986V111.856ZM128.82 130.103C130.447 133.166 131.228 136.685 131.032 140.269C130.512 150.044 122.768 157.864 113.006 158.451C107.605 158.777 102.399 156.952 98.4945 153.237C94.5249 149.523 92.3773 144.505 92.3773 139.096C92.3773 135.903 93.1582 132.84 94.655 130.038L111.77 99.0177L128.885 130.103H128.82Z" fill="#F4C300"/>
</svg>
