<svg width="32" height="32" viewBox="0 0 32 32" fill="none" xmlns="http://www.w3.org/2000/svg">
<path d="M16.3829 5C14.4535 5 12.7088 5.1596 11.4143 5.42695C10.7671 5.56063 10.2342 5.71708 9.82247 5.91815C9.61658 6.01868 9.43834 6.12881 9.2867 6.28185C9.13508 6.43489 9 6.66152 9 6.9292C9 7.19688 9.13508 7.42252 9.2867 7.57556C9.43834 7.7286 9.61658 7.83873 9.82247 7.93926C10.2342 8.14033 10.7671 8.29777 11.4143 8.43145C12.7088 8.6988 14.4535 8.85741 16.3829 8.85741C18.3123 8.85741 20.058 8.6988 21.3524 8.43145C21.9997 8.29777 22.5325 8.14033 22.9443 7.93926C23.1502 7.83873 23.3284 7.7286 23.48 7.57556C23.6317 7.42252 23.7667 7.19688 23.7667 6.9292C23.7667 6.66152 23.6317 6.43489 23.48 6.28185C23.3284 6.12881 23.1502 6.01868 22.9443 5.91815C22.5325 5.71708 21.9997 5.56063 21.3524 5.42695C20.058 5.1596 18.3123 5 16.3829 5ZM16.3829 6.01204C18.2584 6.01204 19.9585 6.1716 21.1574 6.41923C21.7569 6.54304 22.2331 6.69196 22.5186 6.83136C22.5998 6.87103 22.6243 6.8957 22.6711 6.92821C22.6242 6.96078 22.6001 6.98626 22.5186 7.02606C22.2331 7.16545 21.7569 7.31536 21.1574 7.43917C19.9585 7.6868 18.2584 7.84537 16.3829 7.84537C14.5074 7.84537 12.8082 7.6868 11.6093 7.43917C11.0098 7.31536 10.5336 7.16545 10.2482 7.02606C10.1667 6.98626 10.1425 6.96078 10.0957 6.92821C10.1425 6.8957 10.1669 6.87104 10.2482 6.83136C10.5336 6.69196 11.0098 6.54304 11.6093 6.41923C12.8082 6.1716 14.5074 6.01204 16.3829 6.01204ZM9.49425 12.2474C9.42935 12.2474 9.36507 12.2604 9.30511 12.2859C9.24514 12.3113 9.19065 12.3486 9.14476 12.3956C9.09886 12.4425 9.06246 12.4983 9.03762 12.5597C9.01278 12.6211 9 12.6869 9 12.7534C9 13.0211 9.13508 13.2477 9.2867 13.4007C9.43834 13.5538 9.61658 13.6639 9.82247 13.7644C10.2342 13.9655 10.7671 14.1219 11.4143 14.2556C12.7088 14.523 14.4535 14.6826 16.3829 14.6826C18.3123 14.6826 20.058 14.523 21.3524 14.2556C21.9997 14.1219 22.5325 13.9655 22.9443 13.7644C23.1502 13.6639 23.3284 13.5538 23.48 13.4007C23.6317 13.2477 23.7667 13.0211 23.7667 12.7534C23.7667 12.6869 23.754 12.6211 23.7291 12.5597C23.7043 12.4983 23.6679 12.4425 23.622 12.3956C23.5761 12.3486 23.5216 12.3113 23.4616 12.2859C23.4017 12.2604 23.3374 12.2474 23.2725 12.2474C23.2076 12.2474 23.1433 12.2604 23.0833 12.2859C23.0234 12.3113 22.9689 12.3486 22.923 12.3956C22.8771 12.4425 22.8407 12.4983 22.8159 12.5597C22.791 12.6211 22.7782 12.6869 22.7782 12.7534C22.7782 12.6821 22.8179 12.648 22.7859 12.6802C22.754 12.7124 22.6613 12.7815 22.5185 12.8512C22.2331 12.9906 21.7569 13.1405 21.1574 13.2643C19.9585 13.512 18.2584 13.6705 16.3829 13.6705C14.5074 13.6705 12.8082 13.512 11.6093 13.2643C11.0098 13.1405 10.5336 12.9906 10.2482 12.8512C10.1054 12.7815 10.0127 12.7124 9.98077 12.6802C9.94884 12.648 9.98849 12.6822 9.98849 12.7534C9.98849 12.6869 9.97569 12.6211 9.95086 12.5597C9.92602 12.4983 9.88961 12.4425 9.84372 12.3956C9.79782 12.3486 9.74333 12.3113 9.68337 12.2859C9.6234 12.2604 9.55916 12.2474 9.49425 12.2474ZM9.49425 18.0725C9.42935 18.0725 9.36507 18.0856 9.30511 18.111C9.24514 18.1365 9.19065 18.1737 9.14476 18.2207C9.09886 18.2677 9.06246 18.3235 9.03762 18.3849C9.01278 18.4463 9 18.5121 9 18.5785C9 18.8462 9.13508 19.0728 9.2867 19.2259C9.43834 19.3789 9.61658 19.489 9.82247 19.5896C10.2342 19.7906 10.7671 19.9471 11.4143 20.0808C12.7088 20.3481 14.4535 20.5077 16.3829 20.5077C18.3123 20.5077 20.058 20.3481 21.3524 20.0808C21.9997 19.9471 22.5325 19.7906 22.9443 19.5896C23.1502 19.489 23.3284 19.3789 23.48 19.2259C23.6317 19.0728 23.7667 18.8462 23.7667 18.5785C23.7667 18.5121 23.754 18.4463 23.7291 18.3849C23.7043 18.3235 23.6679 18.2677 23.622 18.2207C23.5761 18.1737 23.5216 18.1365 23.4616 18.111C23.4017 18.0856 23.3374 18.0725 23.2725 18.0725C23.2076 18.0725 23.1433 18.0856 23.0833 18.111C23.0234 18.1365 22.9689 18.1737 22.923 18.2207C22.8771 18.2677 22.8407 18.3235 22.8159 18.3849C22.791 18.4463 22.7782 18.5121 22.7782 18.5785C22.7782 18.5073 22.8179 18.4732 22.7859 18.5054C22.754 18.5376 22.6613 18.6067 22.5185 18.6764C22.2331 18.8158 21.7569 18.9647 21.1574 19.0885C19.9585 19.3361 18.2584 19.4957 16.3829 19.4957C14.5074 19.4957 12.8082 19.3361 11.6093 19.0885C11.0098 18.9647 10.5336 18.8158 10.2482 18.6764C10.1054 18.6067 10.0127 18.5376 9.98077 18.5054C9.94884 18.4732 9.98849 18.5073 9.98849 18.5785C9.98849 18.5121 9.97569 18.4463 9.95086 18.3849C9.92602 18.3235 9.88961 18.2677 9.84372 18.2207C9.79782 18.1737 9.74333 18.1365 9.68337 18.111C9.6234 18.0856 9.55916 18.0725 9.49425 18.0725Z" fill="#575757"/>
<path d="M23.2725 6.60577C23.1414 6.60577 23.0157 6.65908 22.923 6.75398C22.8303 6.84888 22.7782 6.97758 22.7782 7.11179V24.1692C22.7782 24.3034 22.8303 24.4321 22.923 24.527C23.0157 24.6219 23.1414 24.6752 23.2725 24.6752C23.4036 24.6752 23.5293 24.6219 23.622 24.527C23.7147 24.4321 23.7667 24.3034 23.7667 24.1692V7.11179C23.7667 6.97758 23.7147 6.84888 23.622 6.75398C23.5293 6.65908 23.4036 6.60577 23.2725 6.60577ZM9.49425 6.53955C9.42935 6.53955 9.36507 6.55264 9.30511 6.57807C9.24514 6.6035 9.19065 6.64077 9.14476 6.68776C9.09886 6.73475 9.06246 6.79053 9.03762 6.85192C9.01278 6.91332 9 6.97912 9 7.04557V24.2433C9 24.3098 9.01278 24.3756 9.03762 24.437C9.06246 24.4984 9.09886 24.5541 9.14476 24.6011C9.19065 24.6481 9.24514 24.6854 9.30511 24.7108C9.36507 24.7363 9.42935 24.7493 9.49425 24.7493C9.55916 24.7493 9.62343 24.7363 9.6834 24.7108C9.74336 24.6854 9.79784 24.6481 9.84373 24.6011C9.88963 24.5541 9.92605 24.4984 9.95089 24.437C9.97572 24.3756 9.9885 24.3098 9.9885 24.2433V7.04557C9.9885 6.97912 9.97572 6.91332 9.95089 6.85192C9.92605 6.79053 9.88963 6.73475 9.84373 6.68776C9.79784 6.64077 9.74336 6.6035 9.6834 6.57807C9.62343 6.55264 9.55916 6.53955 9.49425 6.53955Z" fill="#575757"/>
<path d="M9.49425 23.8975C9.42935 23.8975 9.36507 23.9105 9.30511 23.936C9.24514 23.9614 9.19065 23.9987 9.14476 24.0457C9.09886 24.0927 9.06246 24.1484 9.03762 24.2098C9.01278 24.2712 9 24.337 9 24.4035C9 24.6712 9.13508 24.8978 9.2867 25.0508C9.43834 25.2039 9.61658 25.314 9.82247 25.4145C10.2342 25.6156 10.7671 25.7721 11.4143 25.9057C12.7088 26.1731 14.4535 26.3327 16.3829 26.3327C18.3123 26.3327 20.058 26.1731 21.3524 25.9057C21.9997 25.7721 22.5325 25.6156 22.9443 25.4145C23.1502 25.314 23.3284 25.2039 23.48 25.0508C23.6317 24.8978 23.7667 24.6712 23.7667 24.4035C23.7667 24.337 23.754 24.2712 23.7291 24.2098C23.7043 24.1484 23.6679 24.0927 23.622 24.0457C23.5761 23.9987 23.5216 23.9614 23.4616 23.936C23.4017 23.9105 23.3374 23.8975 23.2725 23.8975C23.2076 23.8975 23.1433 23.9105 23.0833 23.936C23.0234 23.9614 22.9689 23.9987 22.923 24.0457C22.8771 24.0927 22.8407 24.1484 22.8159 24.2098C22.791 24.2712 22.7782 24.337 22.7782 24.4035C22.7782 24.3323 22.8179 24.2981 22.7859 24.3303C22.754 24.3626 22.6613 24.4306 22.5185 24.5003C22.2331 24.6397 21.7569 24.7896 21.1574 24.9135C19.9585 25.1611 18.2584 25.3206 16.3829 25.3206C14.5074 25.3206 12.8082 25.1611 11.6093 24.9135C11.0098 24.7896 10.5336 24.6397 10.2482 24.5003C10.1054 24.4306 10.0127 24.3626 9.98077 24.3303C9.94884 24.2981 9.98849 24.3323 9.98849 24.4035C9.98849 24.337 9.97569 24.2712 9.95086 24.2098C9.92602 24.1484 9.88961 24.0927 9.84372 24.0457C9.79782 23.9987 9.74333 23.9614 9.68337 23.936C9.6234 23.9105 9.55916 23.8975 9.49425 23.8975Z" fill="#575757"/>
</svg>
