<svg width="32" height="32" viewBox="0 0 32 32" fill="none" xmlns="http://www.w3.org/2000/svg">
<rect width="32" height="32" rx="16" fill="#DEDEDE"/>
<path d="M18 14L19.5 12.5M19.5 12.5L21 11M19.5 12.5L18 11M19.5 12.5L21 14M9.75 10.25C8.92157 10.25 8.25 10.9216 8.25 11.75V12.5C8.25 18.7132 13.2868 23.75 19.5 23.75H20.25C21.0784 23.75 21.75 23.0784 21.75 22.25V19.7906C21.75 19.4677 21.5434 19.1811 21.2372 19.0791L17.8671 17.9557C17.513 17.8377 17.126 17.998 16.9591 18.3318L16.1126 20.0247C14.2791 19.1981 12.8019 17.7209 11.9753 15.8874L13.6682 15.0409C14.002 14.874 14.1623 14.487 14.0443 14.1329L12.9209 10.7628C12.8189 10.4566 12.5323 10.25 12.2094 10.25H9.75Z" stroke="#3B3B3B" stroke-width="1.5" stroke-linecap="round" stroke-linejoin="round"/>
</svg>
