<svg width="32" height="32" viewBox="0 0 32 32" fill="none" xmlns="http://www.w3.org/2000/svg">
<rect width="32" height="32" rx="16" fill="#DEDEDE"/>
<path d="M21.8548 9.99121H10.1452C9.51014 9.99192 8.90133 10.2445 8.4523 10.6935C8.00328 11.1425 7.7507 11.7514 7.75 12.3864V19.6144C7.75 20.935 8.82463 22.0096 10.1452 22.0096H21.8548C23.1754 22.0096 24.25 20.935 24.25 19.6144V12.3864C24.25 11.0658 23.1754 9.99121 21.8548 9.99121ZM21.1469 11.588L20.4124 12.1681L16.495 15.2606C16.2023 15.4894 15.7977 15.4894 15.505 15.2606L11.726 12.2746L10.8547 11.588H21.1469ZM21.8548 20.4128H10.1452C9.70498 20.4128 9.34677 20.0546 9.34677 19.6144V12.4369L14.515 16.5167C14.9515 16.8627 15.4784 17.033 16 17.033C16.5216 17.033 17.0485 16.8627 17.485 16.5167L22.6532 12.4385V19.6144C22.6532 20.0546 22.295 20.4128 21.8548 20.4128Z" fill="#3B3B3B"/>
</svg>
