<svg width="24" height="24" viewBox="0 0 24 24" fill="none" xmlns="http://www.w3.org/2000/svg">
<path d="M9.34258 22.7562V15.4143H7.07475V12.0405H9.34258V10.5868C9.34258 6.82845 11.0366 5.08682 14.7124 5.08682C15.08 5.08682 15.5878 5.12546 16.0581 5.18158C16.4103 5.21796 16.7597 5.2779 17.104 5.36099V8.42012C16.905 8.40149 16.7053 8.39044 16.5054 8.387C16.2815 8.38117 16.0575 8.37841 15.8335 8.37872C15.1854 8.37872 14.6794 8.46705 14.2981 8.66302C14.0417 8.79211 13.8262 8.99025 13.6757 9.23528C13.4392 9.6217 13.3328 10.1507 13.3328 10.8472V12.0405H16.9253L16.5714 13.9753L16.3083 15.4143H13.3328V23C18.7797 22.3394 23 17.6849 23 12.0405C23 5.94338 18.0748 1 12 1C5.92525 1 1 5.94338 1 12.0405C1 17.2185 4.55117 21.5629 9.34258 22.7562Z" fill="white"/>
</svg>
