<svg width="24" height="24" viewBox="0 0 24 24" fill="none" xmlns="http://www.w3.org/2000/svg">
<path d="M7.85843 2.07001C6.79442 2.12018 6.06784 2.29001 5.43258 2.53951C4.77525 2.79576 4.218 3.13951 3.66358 3.69593C3.10924 4.25234 2.76774 4.80992 2.5134 5.46842C2.26724 6.10492 2.1004 6.83217 2.0534 7.89675C2.0064 8.96133 1.99598 9.30358 2.00123 12.0192C2.0064 14.7347 2.0184 15.0751 2.06998 16.142C2.12082 17.2057 2.28999 17.9321 2.53957 18.5675C2.79624 19.225 3.13957 19.782 3.69624 20.3365C4.25283 20.8911 4.81 21.2318 5.47 21.4865C6.106 21.7324 6.83342 21.9 7.89785 21.9465C8.96227 21.9932 9.30485 22.004 12.0197 21.9988C14.7345 21.9936 15.0764 21.9815 16.1429 21.931C17.2096 21.8804 17.9321 21.71 18.5677 21.4615C19.2252 21.2044 19.7826 20.8615 20.3367 20.3048C20.8909 19.748 21.2322 19.19 21.4863 18.5311C21.7327 17.8951 21.9002 17.1678 21.9463 16.1041C21.993 15.0367 22.004 14.696 21.9988 11.9808C21.9936 9.26558 21.9813 8.92516 21.9307 7.85875C21.8802 6.79233 21.7107 6.06817 21.4613 5.43234C21.2043 4.77492 20.8613 4.21834 20.305 3.66334C19.7486 3.10834 19.1901 2.76735 18.5316 2.51376C17.8951 2.26751 17.1681 2.09976 16.1037 2.05376C15.0393 2.00776 14.6967 1.99585 11.9809 2.00118C9.26502 2.00635 8.92502 2.01801 7.85843 2.07001ZM7.97526 20.1475C7.00026 20.1051 6.47084 19.9431 6.118 19.8075C5.65084 19.6275 5.318 19.41 4.96642 19.0617C4.61475 18.7135 4.39883 18.3796 4.21641 17.9134C4.07941 17.5606 3.91441 17.0317 3.86883 16.0567C3.81924 15.003 3.80883 14.6866 3.80299 12.0167C3.79716 9.34699 3.80741 9.03091 3.85358 7.97675C3.89524 7.00258 4.05824 6.47258 4.19358 6.11992C4.37358 5.65217 4.59041 5.31992 4.93942 4.96859C5.28842 4.61717 5.62142 4.40076 6.088 4.21834C6.44051 4.08076 6.96926 3.91718 7.94385 3.87076C8.99844 3.82076 9.31444 3.81076 11.9839 3.80493C14.6533 3.79909 14.9701 3.80909 16.0251 3.85559C16.9993 3.89793 17.5296 4.05934 17.8818 4.19559C18.3491 4.37559 18.6818 4.59176 19.0331 4.94142C19.3846 5.29092 19.6012 5.62275 19.7836 6.09034C19.9213 6.44175 20.085 6.97033 20.131 7.94558C20.1812 9.00016 20.1926 9.31641 20.1973 11.9856C20.2022 14.6547 20.1927 14.9717 20.1465 16.0256C20.104 17.0006 19.9423 17.5301 19.8065 17.8834C19.6265 18.3504 19.4096 18.6834 19.0603 19.0345C18.7111 19.3858 18.3786 19.6021 17.9117 19.7845C17.5597 19.922 17.0303 20.086 16.0566 20.1324C15.0019 20.182 14.6859 20.1924 12.0155 20.1982C9.34502 20.204 9.02985 20.1932 7.97526 20.1475ZM16.1276 6.65533C16.1279 6.89269 16.1987 7.1246 16.3309 7.32173C16.4631 7.51886 16.6508 7.67235 16.8703 7.7628C17.0898 7.85324 17.3311 7.87657 17.5638 7.82984C17.7965 7.78311 18.0102 7.66842 18.1777 7.50026C18.3452 7.33211 18.4591 7.11806 18.505 6.88517C18.5508 6.65228 18.5266 6.41103 18.4353 6.19192C18.344 5.97281 18.1898 5.78569 17.9922 5.65422C17.7946 5.52275 17.5624 5.45284 17.3251 5.45334C17.0069 5.454 16.702 5.58099 16.4774 5.8064C16.2529 6.0318 16.127 6.33716 16.1276 6.65533ZM6.86542 12.01C6.87101 14.846 9.17427 17.1397 12.0096 17.1344C14.8451 17.129 17.1405 14.826 17.1351 11.99C17.1297 9.15399 14.826 6.85958 11.9901 6.86517C9.15427 6.87075 6.86009 9.17433 6.86542 12.01ZM8.66668 12.0064C8.66538 11.3471 8.85961 10.7023 9.22479 10.1534C9.58998 9.60453 10.1097 9.17626 10.7183 8.92277C11.3269 8.66927 11.997 8.60193 12.6438 8.72927C13.2907 8.8566 13.8853 9.17289 14.3524 9.63813C14.8195 10.1034 15.1381 10.6967 15.268 11.343C15.3979 11.9894 15.3333 12.6597 15.0822 13.2693C14.8311 13.8789 14.4049 14.4003 13.8575 14.7677C13.31 15.135 12.666 15.3318 12.0067 15.3331C11.5689 15.3341 11.1353 15.2487 10.7305 15.082C10.3257 14.9153 9.95774 14.6705 9.64758 14.3616C9.33743 14.0527 9.09116 13.6857 8.92286 13.2816C8.75455 12.8775 8.6675 12.4442 8.66668 12.0064Z" fill="white"/>
</svg>
