<svg width="24" height="24" viewBox="0 0 24 24" fill="none" xmlns="http://www.w3.org/2000/svg">
<path d="M5.04088 3C3.81092 3 3 3.84004 3 4.9501C3 6.03016 3.78045 6.89927 4.98042 6.89927C6.27038 6.89927 7.08036 6.03016 7.05036 4.9501C7.05036 3.84004 6.27085 3 5.04088 3ZM16.5596 8.16027C14.4897 8.16027 13.2302 9.35986 12.7202 10.1999H12.6607L12.4802 8.43028H9.15078C9.18078 9.57034 9.24031 10.8904 9.24031 12.4505V21H13.0797V13.7696C13.0797 13.4096 13.1097 13.0501 13.1997 12.78C13.4997 12.06 14.1302 11.3095 15.1802 11.3095C16.5901 11.3095 17.1301 12.42 17.1301 14.0401V21H21V13.5906C21 9.87036 19.0796 8.16027 16.5596 8.16027ZM3.09093 8.43028V21H6.93037V8.43028H3.09093Z" fill="#FEFEFE"/>
</svg>
