<svg width="32" height="32" viewBox="0 0 32 32" fill="none" xmlns="http://www.w3.org/2000/svg">
<rect width="32" height="32" rx="16" fill="#DEDEDE"/>
<path d="M20.2426 19.4926C19.6185 20.1168 18.3891 21.3462 17.4137 22.3216C16.6326 23.1026 15.3674 23.1027 14.5864 22.3217C13.6289 21.3641 12.4213 20.1565 11.7574 19.4926C9.41421 17.1495 9.41421 13.3505 11.7574 11.0074C14.1005 8.66421 17.8995 8.66421 20.2426 11.0074C22.5858 13.3505 22.5858 17.1495 20.2426 19.4926Z" stroke="#3B3B3B" stroke-width="1.5" stroke-linecap="round" stroke-linejoin="round"/>
<path d="M18.25 15.25C18.25 16.4926 17.2426 17.5 16 17.5C14.7574 17.5 13.75 16.4926 13.75 15.25C13.75 14.0074 14.7574 13 16 13C17.2426 13 18.25 14.0074 18.25 15.25Z" stroke="#3B3B3B" stroke-width="1.5" stroke-linecap="round" stroke-linejoin="round"/>
</svg>
