<svg width="32" height="32" viewBox="0 0 32 32" fill="none" xmlns="http://www.w3.org/2000/svg">
<path d="M22.4473 4.90039C22.5101 4.90275 22.572 4.91691 22.6289 4.94238L23.877 5.50293L25.4766 4.92871L25.582 4.90332C25.6179 4.89891 25.6543 4.89887 25.6904 4.90234C25.7629 4.90938 25.8339 4.9323 25.8955 4.96973C25.9568 5.00707 26.0079 5.05829 26.0439 5.11914C26.0801 5.18033 26.0996 5.24963 26.0996 5.32031V7.56445C26.0996 7.62923 26.0834 7.69259 26.0527 7.75C26.0221 7.80734 25.9783 7.85699 25.9248 7.89551L24.1387 9.17773C24.078 9.22137 24.007 9.24939 23.9326 9.26074L23.8574 9.2666C23.7651 9.26669 23.6737 9.24129 23.5967 9.19238C23.5197 9.14344 23.4596 9.07283 23.4268 8.98926C23.3939 8.90534 23.3906 8.81333 23.418 8.72754C23.4453 8.64201 23.5012 8.56784 23.5752 8.51465L25.1855 7.3584V5.93555L24.0234 6.35352C23.9646 6.37474 23.9017 6.38414 23.8389 6.38184C23.8073 6.38065 23.7757 6.37627 23.7451 6.36914L23.6562 6.33984L22.4072 5.7793L20.8096 6.35352C20.7505 6.37486 20.6871 6.3842 20.624 6.38184C20.5612 6.37946 20.4993 6.36546 20.4424 6.33984L19.2139 5.78809L17.9863 6.33984C17.9238 6.36786 17.8552 6.38178 17.7861 6.38184C17.7169 6.38184 17.6477 6.36795 17.585 6.33984L16.3359 5.7793L14.7373 6.35254L14.7383 6.35352C14.6792 6.37485 14.6158 6.3842 14.5527 6.38184C14.4897 6.37947 14.4272 6.36563 14.3701 6.33984V6.33887L13.1221 5.77832L11.5234 6.35352C11.4646 6.37475 11.4017 6.38414 11.3389 6.38184C11.3073 6.38065 11.2757 6.37627 11.2451 6.36914L11.1562 6.33984L9.90723 5.7793L8.30957 6.35352C8.20267 6.39207 8.08348 6.39202 7.97656 6.35352L6.81445 5.93555V7.38672L8.10547 8.54492V8.5459L8.16309 8.60938C8.2133 8.67785 8.24143 8.75983 8.24121 8.8457C8.24081 8.96037 8.18976 9.06803 8.10352 9.14551C8.01752 9.22268 7.90262 9.26529 7.78516 9.26562C7.6973 9.26581 7.61119 9.242 7.53711 9.19824L7.4668 9.14746L6.03809 7.86523C5.99519 7.82677 5.96042 7.78027 5.93652 7.72852C5.91268 7.67686 5.90044 7.62113 5.90039 7.56445V5.32031C5.90043 5.24963 5.91989 5.18033 5.95605 5.11914C5.99213 5.05829 6.04318 5.00707 6.10449 4.96973C6.16607 4.9323 6.23706 4.90938 6.30957 4.90234C6.38195 4.89538 6.45531 4.90429 6.52344 4.92871L8.14258 5.50977L9.7627 4.92871C9.82159 4.90767 9.88445 4.89804 9.94727 4.90039C10.0101 4.90275 10.072 4.91691 10.1289 4.94238L11.377 5.50293L12.9766 4.92871L13.0674 4.90527C13.0983 4.90053 13.1297 4.89924 13.1611 4.90039C13.2241 4.90275 13.2867 4.91681 13.3438 4.94238L14.5918 5.50195L16.1904 4.92871C16.2494 4.90759 16.313 4.89803 16.376 4.90039C16.4388 4.90277 16.5007 4.9169 16.5576 4.94238L17.7852 5.49316L19.0137 4.94238C19.0763 4.91435 19.1448 4.90045 19.2139 4.90039C19.2831 4.90039 19.3523 4.91427 19.415 4.94238L20.6631 5.50195L22.2627 4.92871C22.3216 4.90767 22.3844 4.89804 22.4473 4.90039Z" fill="#575757" stroke="#575757" stroke-width="0.2"/>
<path d="M22.4473 26.7661C22.5101 26.7638 22.572 26.7496 22.6289 26.7241L23.877 26.1636L25.4766 26.7378L25.582 26.7632C25.6179 26.7676 25.6543 26.7676 25.6904 26.7642C25.7629 26.7571 25.8339 26.7342 25.8955 26.6968C25.9568 26.6594 26.0079 26.6082 26.0439 26.5474C26.0801 26.4862 26.0996 26.4169 26.0996 26.3462V24.1021C26.0996 24.0373 26.0834 23.9739 26.0527 23.9165C26.0221 23.8592 25.9783 23.8095 25.9248 23.771L24.1387 22.4888C24.078 22.4451 24.007 22.4171 23.9326 22.4058L23.8574 22.3999C23.7651 22.3998 23.6737 22.4252 23.5967 22.4741C23.5197 22.5231 23.4596 22.5937 23.4268 22.6772C23.3939 22.7612 23.3906 22.8532 23.418 22.939C23.4453 23.0245 23.5012 23.0987 23.5752 23.1519L25.1855 24.3081V25.731L24.0234 25.313C23.9646 25.2918 23.9017 25.2824 23.8389 25.2847C23.8073 25.2859 23.7757 25.2902 23.7451 25.2974L23.6562 25.3267L22.4072 25.8872L20.8096 25.313C20.7505 25.2916 20.6871 25.2823 20.624 25.2847C20.5612 25.287 20.4993 25.301 20.4424 25.3267L19.2139 25.8784L17.9863 25.3267C17.9238 25.2986 17.8552 25.2847 17.7861 25.2847C17.7169 25.2847 17.6477 25.2986 17.585 25.3267L16.3359 25.8872L14.7373 25.314L14.7383 25.313C14.6792 25.2916 14.6158 25.2823 14.5527 25.2847C14.4897 25.287 14.4272 25.3009 14.3701 25.3267V25.3276L13.1221 25.8882L11.5234 25.313C11.4646 25.2918 11.4017 25.2824 11.3389 25.2847C11.3073 25.2859 11.2757 25.2902 11.2451 25.2974L11.1562 25.3267L9.90723 25.8872L8.30957 25.313C8.20267 25.2744 8.08348 25.2745 7.97656 25.313L6.81445 25.731V24.2798L8.10547 23.1216V23.1206L8.16309 23.0571C8.2133 22.9886 8.24143 22.9067 8.24121 22.8208C8.24081 22.7061 8.18976 22.5985 8.10352 22.521C8.01752 22.4438 7.90262 22.4012 7.78516 22.4009C7.6973 22.4007 7.61119 22.4245 7.53711 22.4683L7.4668 22.519L6.03809 23.8013C5.99519 23.8397 5.96042 23.8862 5.93652 23.938C5.91268 23.9896 5.90044 24.0454 5.90039 24.1021V26.3462C5.90043 26.4169 5.91989 26.4862 5.95605 26.5474C5.99213 26.6082 6.04318 26.6594 6.10449 26.6968C6.16607 26.7342 6.23706 26.7571 6.30957 26.7642C6.38195 26.7711 6.45531 26.7622 6.52344 26.7378L8.14258 26.1567L9.7627 26.7378C9.82159 26.7588 9.88445 26.7685 9.94727 26.7661C10.0101 26.7638 10.072 26.7496 10.1289 26.7241L11.377 26.1636L12.9766 26.7378L13.0674 26.7612C13.0983 26.766 13.1297 26.7673 13.1611 26.7661C13.2241 26.7638 13.2867 26.7497 13.3438 26.7241L14.5918 26.1646L16.1904 26.7378C16.2494 26.7589 16.313 26.7685 16.376 26.7661C16.4388 26.7637 16.5007 26.7496 16.5576 26.7241L17.7852 26.1733L19.0137 26.7241C19.0763 26.7522 19.1448 26.7661 19.2139 26.7661C19.2831 26.7661 19.3523 26.7522 19.415 26.7241L20.6631 26.1646L22.2627 26.7378C22.3216 26.7588 22.3844 26.7685 22.4473 26.7661Z" fill="#575757" stroke="#575757" stroke-width="0.2"/>
<path d="M8.02148 8.23389C8.14229 8.23389 8.25855 8.28187 8.34375 8.36768C8.42878 8.45344 8.47656 8.57001 8.47656 8.69092V22.9761C8.4766 23.036 8.46418 23.0955 8.44141 23.1509C8.41867 23.2062 8.38583 23.2569 8.34375 23.2993C8.30164 23.3417 8.2514 23.3759 8.19629 23.3989C8.14106 23.4219 8.0813 23.4331 8.02148 23.4331C7.96184 23.4331 7.90274 23.4218 7.84766 23.3989C7.79248 23.3759 7.74236 23.3417 7.7002 23.2993C7.658 23.2568 7.62434 23.2063 7.60156 23.1509C7.57881 23.0955 7.56735 23.036 7.56738 22.9761V8.69092C7.56738 8.5699 7.61502 8.45346 7.7002 8.36768C7.78535 8.28198 7.90079 8.23392 8.02148 8.23389ZM23.9795 8.23389C24.1001 8.23401 24.2157 8.28197 24.3008 8.36768C24.3859 8.45346 24.4336 8.56992 24.4336 8.69092V22.9761C24.4336 23.0359 24.4221 23.0955 24.3994 23.1509C24.3766 23.2063 24.343 23.2568 24.3008 23.2993C24.2586 23.3418 24.2086 23.3759 24.1533 23.3989C24.0983 23.4219 24.0391 23.4321 23.9795 23.4321V23.4331C23.9197 23.4331 23.8599 23.4219 23.8047 23.3989C23.7495 23.3759 23.6994 23.3418 23.6572 23.2993C23.6151 23.2568 23.5814 23.2063 23.5586 23.1509C23.5359 23.0955 23.5244 23.0359 23.5244 22.9761V8.69092C23.5244 8.56994 23.5721 8.45346 23.6572 8.36768C23.7424 8.28187 23.8587 8.23389 23.9795 8.23389Z" fill="#575757" stroke="#575757" stroke-width="0.2"/>
<path d="M24.036 23.3333H7.96461C7.88567 23.3333 7.80997 23.2894 7.75416 23.2113C7.69835 23.1332 7.66699 23.0272 7.66699 22.9167C7.66699 22.8062 7.69835 22.7002 7.75416 22.622C7.80997 22.5439 7.88567 22.5 7.96461 22.5H24.036C24.115 22.5 24.1907 22.5439 24.2465 22.622C24.3023 22.7002 24.3337 22.8062 24.3337 22.9167C24.3337 23.0272 24.3023 23.1332 24.2465 23.2113C24.1907 23.2894 24.115 23.3333 24.036 23.3333Z" fill="#575757"/>
<path d="M24.036 9.16683H7.96461C7.88567 9.16683 7.80997 9.12293 7.75416 9.04479C7.69835 8.96665 7.66699 8.86067 7.66699 8.75016C7.66699 8.63966 7.69835 8.53368 7.75416 8.45554C7.80997 8.37739 7.88567 8.3335 7.96461 8.3335H24.036C24.115 8.3335 24.1907 8.37739 24.2465 8.45554C24.3023 8.53368 24.3337 8.63966 24.3337 8.75016C24.3337 8.86067 24.3023 8.96665 24.2465 9.04479C24.1907 9.12293 24.115 9.16683 24.036 9.16683Z" fill="#575757"/>
<path d="M24.036 13.3333H7.96461C7.88567 13.3333 7.80997 13.2894 7.75416 13.2113C7.69835 13.1332 7.66699 13.0272 7.66699 12.9167C7.66699 12.8062 7.69835 12.7002 7.75416 12.622C7.80997 12.5439 7.88567 12.5 7.96461 12.5H24.036C24.115 12.5 24.1907 12.5439 24.2465 12.622C24.3023 12.7002 24.3337 12.8062 24.3337 12.9167C24.3337 13.0272 24.3023 13.1332 24.2465 13.2113C24.1907 13.2894 24.115 13.3333 24.036 13.3333Z" fill="#575757"/>
<path d="M24.036 19.1668H7.96461C7.88567 19.1668 7.80997 19.1229 7.75416 19.0448C7.69835 18.9667 7.66699 18.8607 7.66699 18.7502C7.66699 18.6397 7.69835 18.5337 7.75416 18.4555C7.80997 18.3774 7.88567 18.3335 7.96461 18.3335H24.036C24.115 18.3335 24.1907 18.3774 24.2465 18.4555C24.3023 18.5337 24.3337 18.6397 24.3337 18.7502C24.3337 18.8607 24.3023 18.9667 24.2465 19.0448C24.1907 19.1229 24.115 19.1668 24.036 19.1668Z" fill="#575757"/>
</svg>
