<svg width="32" height="32" viewBox="0 0 32 32" fill="none" xmlns="http://www.w3.org/2000/svg">
<path d="M14.667 5.33366C14.667 3.8609 15.8609 2.66699 17.3337 2.66699C18.8064 2.66699 20.0003 3.8609 20.0003 5.33366V6.66699C20.0003 7.40337 20.5973 8.00033 21.3337 8.00033H25.3337C26.07 8.00033 26.667 8.59728 26.667 9.33366V13.3337C26.667 14.07 26.07 14.667 25.3337 14.667H24.0003C22.5276 14.667 21.3337 15.8609 21.3337 17.3337C21.3337 18.8064 22.5276 20.0003 24.0003 20.0003H25.3337C26.07 20.0003 26.667 20.5973 26.667 21.3337V25.3337C26.667 26.07 26.07 26.667 25.3337 26.667H21.3337C20.5973 26.667 20.0003 26.07 20.0003 25.3337V24.0003C20.0003 22.5276 18.8064 21.3337 17.3337 21.3337C15.8609 21.3337 14.667 22.5276 14.667 24.0003V25.3337C14.667 26.07 14.07 26.667 13.3337 26.667H9.33366C8.59728 26.667 8.00033 26.07 8.00033 25.3337V21.3337C8.00033 20.5973 7.40337 20.0003 6.66699 20.0003H5.33366C3.8609 20.0003 2.66699 18.8064 2.66699 17.3337C2.66699 15.8609 3.8609 14.667 5.33366 14.667H6.66699C7.40337 14.667 8.00033 14.07 8.00033 13.3337V9.33366C8.00033 8.59728 8.59728 8.00033 9.33366 8.00033H13.3337C14.07 8.00033 14.667 7.40337 14.667 6.66699V5.33366Z" stroke="#3B3B3B" stroke-width="2" stroke-linecap="round" stroke-linejoin="round"/>
</svg>
