<svg width="30" height="28" viewBox="0 0 30 28" fill="none" xmlns="http://www.w3.org/2000/svg">
<path d="M11.4404 5.04883C8.96973 5.51432 7.23307 7.30469 6.23047 10.4199C5.72917 11.9596 5.47852 13.4814 5.47852 14.9854C5.47852 15.1644 5.47852 15.3255 5.47852 15.4688C5.51432 15.5762 5.55013 15.8447 5.58594 16.2744H11.4404V27.9834H0V17.1875C0 11.888 1.05632 7.80599 3.16895 4.94141C5.28158 2.07682 8.03874 0.429688 11.4404 0V5.04883ZM29.541 5.04883C27.5716 5.37109 26.0677 6.48112 25.0293 8.37891C24.0267 10.2767 23.5254 12.4609 23.5254 14.9316C23.5254 15.1465 23.5254 15.3613 23.5254 15.5762C23.5612 15.791 23.6149 16.0238 23.6865 16.2744H29.541V27.9834H18.0469V17.1875C18.0469 12.9264 18.9421 9.13086 20.7324 5.80078C22.5228 2.4349 25.459 0.501302 29.541 0V5.04883Z" fill="#BFBFBF"/>
</svg>
