<svg width="24" height="24" viewBox="0 0 24 24" fill="none" xmlns="http://www.w3.org/2000/svg">
<path d="M22.7684 7.44889C22.7684 7.44889 22.5536 5.88444 21.8921 5.19111C21.0589 4.28444 20.1225 4.28444 19.6843 4.23111C16.618 4 12.0047 4 12.0047 4H11.9961C11.9961 4 7.38289 4 4.29883 4.23111C3.8693 4.28444 2.93289 4.28444 2.09101 5.19111C1.43812 5.88444 1.22336 7.44889 1.22336 7.44889C1.22336 7.44889 1 9.29778 1 11.1378V12.8622C1 14.7022 1.22336 16.5422 1.22336 16.5422C1.22336 16.5422 1.43812 18.1067 2.09961 18.8C2.93289 19.7067 4.0325 19.68 4.52219 19.7689C6.28328 19.9467 11.9961 20 11.9961 20C11.9961 20 16.6179 19.9911 19.6934 19.76C20.1229 19.7067 21.0593 19.7067 21.9012 18.8C22.5627 18.1067 22.7774 16.5422 22.7774 16.5422C22.7774 16.5422 23 14.7022 23 12.8622V11.1378C22.9914 9.29778 22.768 7.44889 22.768 7.44889H22.7684ZM9.72778 14.9511V8.56L15.6725 11.7689L9.72778 14.9511Z" fill="white"/>
</svg>
